# xmcd
#
# Track frame offsets:
#	150
#	10748
#	17820
#	27814
#	42602
#	55629
#	69387
#	81441
#	97626
#	111079
#	125996
#	147765
#	168404
#	171961
#	184060
#	194584
#	221164
#	232956
#	244538
#	262670
#	282704
#	294823
#	310493
#	326425
#
# Disc length: 4557 seconds
#
# Revision: 1
# Processed by: cddbd v1.5.2PL0 Copyright (c) Steve Scherf et al.
# Submitted via: audiograbber 1.83.01
#
DISCID=5511cb18
DTITLE=Georges Moustaki - Live Bobino 75
DYEAR=1975
DGENRE=Chanson francaise
TTITLE0=Presentation
TTITLE1=La chanson d'amour
TTITLE2=Nous sommes deux
TTITLE3=Danse
TTITLE4=Ma solitude
TTITLE5=Les amis de Georges
TTITLE6=Sans la nommer
TTITLE7=Le tango de demain
TTITLE8=Le droit a la paresse
TTITLE9=Seul
TTITLE10=Les enfants d'hier
TTITLE11=Portugal
TTITLE12=Entracte
TTITLE13=La mere et la fille
TTITLE14=Ce soir mon amour
TTITLE15=Chanson pour elle
TTITLE16=La jardinera
TTITLE17=Grand-pere
TTITLE18=Aphorismes
TTITLE19=Kaimos
TTITLE20=Le chant du cygne
TTITLE21=Le meteque
TTITLE22=Les eaux de mars
TTITLE23=Il est trop tard
EXTD=
EXTT0=
EXTT1=
EXTT2=
EXTT3=
EXTT4=
EXTT5=
EXTT6=
EXTT7=
EXTT8=
EXTT9=
EXTT10=
EXTT11=
EXTT12=
EXTT13=
EXTT14=
EXTT15=
EXTT16=
EXTT17=
EXTT18=
EXTT19=
EXTT20=
EXTT21=
EXTT22=
EXTT23=
PLAYORDER=
